<?xml version="1.0" encoding="utf-8"?>
<!-- Generator: Adobe Illustrator 25.0.1, SVG Export Plug-In . SVG Version: 6.00 Build 0)  -->
<svg version="1.1" xmlns="http://www.w3.org/2000/svg" xmlns:xlink="http://www.w3.org/1999/xlink" x="0px" y="0px"
	 viewBox="0 0 1920 1080" style="enable-background:new 0 0 1920 1080;" xml:space="preserve">
<style type="text/css">
	.st0{opacity:0.5;}
	.st1{fill:none;}
	.st2{fill:#F0D43C;}
	.st3{fill:#F0D43C;stroke:#F0D43C;stroke-miterlimit:10;}
</style>
<g class="st0">
	<g id="Layer_1">
	</g>
</g>
<g>
	<g>
		<path class="st1" d="M718.8,684.65c-26.32-23.43-42.56-53.7-49.31-87.81L533.13,723.82c-58.93,54.87-72.28,130.11-29.77,167.73
			c42.52,37.61,125.06,23.57,183.99-31.3L828.2,729.1C785.76,725.03,747.82,710.48,718.8,684.65L718.8,684.65z"/>
		<path class="st1" d="M911.43,511.59c-21.54-19.06-53.36-24.83-87.17-18.78c-4.1,28.65,3.25,54.94,23.25,72.74
			c21.52,19.16,53.6,24.82,87.83,18.51C939.13,555.57,931.54,529.37,911.43,511.59z"/>
		<path class="st1" d="M1037.74,393.98c26.74,23.65,43.29,54.22,50.24,88.61l143.34-132.64c60.05-55.57,74.42-131.48,32.03-169.21
			c-42.39-37.73-125.73-23.22-185.79,32.35L930.08,349.57C971.67,353.97,1008.96,368.53,1037.74,393.98L1037.74,393.98z"/>
		<path d="M824.26,492.81c33.81-6.05,65.63-0.28,87.17,18.78c20.11,17.79,27.7,43.99,23.91,72.47c33.19-6.12,68.39-23.5,97.96-50.86
			l54.68-50.6c-6.96-34.39-23.51-64.96-50.24-88.61l0,0c-28.77-25.45-66.07-40.01-107.66-44.41l-50.54,46.77
			C847.82,425.7,828.85,460.73,824.26,492.81z"/>
		<path d="M828.2,729.1L687.35,860.24c-58.93,54.87-141.47,68.91-183.99,31.3c-42.52-37.61-29.16-112.85,29.77-167.73l136.36-126.97
			c-11.54-58.31,4.7-127.83,45.86-193.58c-27.62,16.26-54.31,35.98-79.04,59.01L442,643.2
			c-128.25,119.41-157.47,284.09-64.94,365.94v0c92.53,81.85,273.17,51.12,401.42-68.29L972.8,759.93
			c28.94-26.95,52.82-56.2,71.41-86.28C972.48,716,894.8,735.47,828.2,729.1z"/>
		<path class="st2" d="M1392.06,61.64L1392.06,61.64c-92.25-82.11-274.66-50.35-405.35,70.59L788.69,315.47
			c-29.65,27.44-54.18,57.21-73.33,87.8c71.07-41.84,148.36-60.72,214.72-53.7l147.48-136.47c60.05-55.57,143.4-70.08,185.79-32.35
			c42.39,37.73,28.02,113.64-32.03,169.21l-143.34,132.64c11.68,57.77-3.77,126.33-43.77,191.05
			c27.88-16.46,54.87-36.37,79.94-59.58l198.02-183.24C1452.86,309.88,1484.31,143.75,1392.06,61.64z"/>
		<path class="st3" d="M847.51,565.55c-20-17.8-27.35-44.09-23.25-72.74c-32.92,5.89-67.74,23-96.81,50.08l-57.95,53.96
			c6.75,34.11,22.98,64.38,49.31,87.81v0c29.02,25.83,66.96,40.38,109.4,44.44l53.47-49.79c31.06-28.92,49.45-63.51,53.67-95.26
			C901.11,590.37,869.03,584.7,847.51,565.55z"/>
		<path class="st2" d="M1087.98,482.59l-54.68,50.6c-29.56,27.36-64.77,44.74-97.96,50.86c-4.23,31.75-22.61,66.33-53.67,95.26
			L828.2,729.1c66.6,6.38,144.29-13.1,216.01-55.46C1084.21,608.93,1099.66,540.37,1087.98,482.59z"/>
		<path d="M669.49,596.85l57.95-53.96c29.07-27.07,63.89-44.18,96.81-50.08c4.59-32.08,23.56-67.12,55.28-96.47l50.54-46.77
			c-66.36-7.02-143.65,11.86-214.72,53.7C674.19,469.02,657.96,538.54,669.49,596.85z"/>
	</g>
</g>
</svg>
